HIERARCHY
ROOT Hips
{
	OFFSET 0.000000 0.000000 0.000000 
	CHANNELS 6 Xposition Yposition Zposition Zrotation Yrotation Xrotation
	JOINT LeftUpLeg
	{
		OFFSET 1.363060 -1.794630 0.839290 
		CHANNELS 3 Zrotation Yrotation Xrotation
		JOINT LeftLeg
		{
			OFFSET 2.448110 -6.726130 0.000000 
			CHANNELS 3 Zrotation Yrotation Xrotation
			JOINT LeftFoot
			{
				OFFSET 2.562200 -7.039590 0.000000 
				CHANNELS 3 Zrotation Yrotation Xrotation
				JOINT LeftToeBase
				{
					OFFSET 0.157640 -0.433110 2.322550 
					CHANNELS 3 Zrotation Yrotation Xrotation
					End Site
					{
						OFFSET 0.000000 0.000000 0.000000 
					}
				}
			}
		}
	}
	JOINT RightUpLeg
	{
		OFFSET -1.305520 -1.794630 0.839290 
		CHANNELS 3 Zrotation Yrotation Xrotation
		JOINT RightLeg
		{
			OFFSET -2.542530 -6.985550 0.000000 
			CHANNELS 3 Zrotation Yrotation Xrotation
			JOINT RightFoot
			{
				OFFSET -2.568260 -7.056230 0.000000 
				CHANNELS 3 Zrotation Yrotation Xrotation
				JOINT RightToeBase
				{
					OFFSET -0.164730 -0.452590 2.363150 
					CHANNELS 3 Zrotation Yrotation Xrotation
					End Site
					{
						OFFSET 0.000000 0.000000 0.000000 
					}
				}
			}
		}
	}
	JOINT Spine
	{
		OFFSET 0.028270 2.035590 -0.193380 
		CHANNELS 3 Zrotation Yrotation Xrotation
		JOINT Spine1
		{
			OFFSET 0.056720 2.048850 -0.042750 
			CHANNELS 3 Zrotation Yrotation Xrotation
			JOINT Neck1
			{
				OFFSET -0.054170 1.746240 0.172020 
				CHANNELS 3 Zrotation Yrotation Xrotation
				JOINT Head
				{
					OFFSET 0.104070 1.761360 -0.123970 
					CHANNELS 3 Zrotation Yrotation Xrotation
					End Site
					{
						OFFSET 0.000000 0.000000 0.000000 
					}
				}
			}
			JOINT LeftArm
			{
				OFFSET 3.362410 1.200890 -0.311210 
				CHANNELS 3 Zrotation Yrotation Xrotation
				JOINT LeftForeArm
				{
					OFFSET 4.983000 -0.000000 -0.000000 
					CHANNELS 3 Zrotation Yrotation Xrotation
					JOINT LeftHand
					{
						OFFSET 3.483560 -0.000000 -0.000000 
						CHANNELS 3 Zrotation Yrotation Xrotation
						JOINT LeftHandIndex1
						{
							OFFSET 0.715260 -0.000000 -0.000000 
							CHANNELS 3 Zrotation Yrotation Xrotation
							End Site
							{
								OFFSET 0.000000 0.000000 0.000000 
							}
						}
					}
				}
			}
			JOINT RightArm
			{
				OFFSET -3.136600 1.374050 -0.404650 
				CHANNELS 3 Zrotation Yrotation Xrotation
				JOINT RightForeArm
				{
					OFFSET -5.241900 -0.000000 -0.000000 
					CHANNELS 3 Zrotation Yrotation Xrotation
					JOINT RightHand
					{
						OFFSET -3.444170 -0.000000 -0.000000 
						CHANNELS 3 Zrotation Yrotation Xrotation
						JOINT RightHandIndex1
						{
							OFFSET -0.622530 -0.000000 -0.000000 
							CHANNELS 3 Zrotation Yrotation Xrotation
							End Site
							{
								OFFSET 0.000000 0.000000 0.000000 
							}
						}
					}
				}
			}
		}
	}
}
MOTION
Frames: 13
Frame Time: 0.041667
54.538619 17.151646 20.369696 -174.797045 -41.645780 179.714316 -16.649476 3.148859 -11.286714 1.248793 10.508195 28.111952 1.182108 -2.157300 -8.588480 0.051500 1.465000 4.029100 29.221481 7.156159 -12.066206 -1.363463 -12.245536 32.091561 0.761754 -6.746778 -12.838003 -0.033800 -1.187600 3.265100 1.261924 -1.133137 -1.053534 -3.445630 -0.353071 5.598972 9.096741 -3.057451 9.716021 1.914400 -1.172000 2.451100 -80.550313 -0.257300 20.587751 6.863155 -19.216035 -2.345653 -1.266013 -1.726036 -20.916456 -7.125000 0.000000 0.000000 77.530677 -3.172753 20.714563 -13.309336 27.476605 -5.129983 1.828668 1.046251 -4.061998 7.125000 0.000000 0.000000 
54.526150 17.151108 20.369051 -174.850206 -41.689287 179.513166 -16.703391 3.201935 -10.893280 1.209576 10.422809 27.884526 1.180004 -2.140064 -8.628721 0.042400 1.329000 3.654500 29.206967 7.118670 -11.767375 -1.369934 -12.224379 32.089607 0.792055 -6.872110 -12.946424 -0.031000 -1.136400 3.124200 1.300785 -1.294473 -1.051003 -3.224216 -0.445486 5.568790 9.051248 -3.000999 9.679064 1.893200 -1.147500 2.400300 -80.783296 -0.155968 20.134961 6.670577 -18.972199 -2.279083 -1.290970 -1.678294 -20.567731 -7.125000 0.000000 0.000000 77.403851 -3.110880 20.974889 -13.347929 27.500136 -5.139803 1.848131 1.052920 -4.169320 7.125000 0.000000 0.000000 
54.515723 17.147453 20.368943 -174.887212 -41.754721 179.333300 -16.732717 3.378328 -10.602252 1.182802 10.358048 27.720714 1.222842 -2.348835 -8.591231 0.043100 1.340000 3.684900 29.202829 7.144405 -11.501491 -1.384466 -12.222979 32.135379 0.814436 -6.991378 -13.143551 -0.027300 -1.066100 2.930800 1.302060 -1.282400 -1.045673 -3.168566 -0.443376 5.625347 9.154162 -3.014744 9.733956 1.956000 -1.145300 2.518800 -80.705452 -0.197781 20.126344 6.455154 -18.696039 -2.201454 -1.308657 -1.659171 -20.325868 -7.125000 0.000000 0.000000 77.539957 -3.035562 20.855930 -13.387722 27.518878 -5.156095 1.860037 1.041795 -4.249473 7.125000 0.000000 0.000000 
54.509058 17.147776 20.373565 -174.892306 -41.940945 179.306384 -16.726108 3.389265 -10.509440 1.146508 10.296517 27.542145 1.260545 -2.560559 -8.413668 0.043900 1.352900 3.720400 29.173740 7.147649 -11.456191 -1.390981 -12.228874 32.166548 0.778804 -6.907107 -13.309387 -0.038600 -1.268500 3.487800 1.306094 -1.314944 -1.057515 -3.155970 -0.463579 5.598460 9.146964 -3.167326 9.718274 1.943600 -1.225400 2.486900 -80.134795 -0.320292 22.179066 6.056971 -18.253547 -2.038406 -1.320490 -1.695046 -22.177321 -7.125000 0.000000 0.000000 77.650232 -3.146552 20.911354 -13.471312 27.618743 -5.197793 1.882100 1.048905 -4.290771 7.125000 0.000000 0.000000 
54.500351 17.146808 20.376145 -174.918538 -42.065310 179.222481 -16.744979 3.450449 -10.346981 1.118596 10.242435 27.393679 1.294193 -2.740595 -8.313060 0.044400 1.359200 3.737800 29.152076 7.143517 -11.339103 -1.402266 -12.232936 32.207172 0.791573 -6.983987 -13.456529 -0.038600 -1.267700 3.485600 1.316101 -1.350647 -1.063175 -3.080800 -0.486791 5.594762 9.167963 -3.243856 9.727091 1.953300 -1.263100 2.503100 -79.978424 -0.317384 22.786060 5.860943 -18.028449 -1.964600 -1.331957 -1.693431 -22.670801 -7.125000 0.000000 0.000000 77.718760 -3.175312 20.939028 -13.516257 27.660947 -5.217705 1.900059 1.048412 -4.296410 7.125000 0.000000 0.000000 
54.491859 17.145841 20.378833 -174.940754 -42.196213 179.146811 -16.764913 3.507412 -10.208501 1.093943 10.195496 27.264146 1.327954 -2.923521 -8.207715 0.046100 1.385900 3.811300 29.129728 7.119668 -11.243423 -1.412817 -12.236410 32.243900 0.811659 -7.081520 -13.583922 -0.036800 -1.238700 3.405800 1.323888 -1.374396 -1.068678 -3.014295 -0.503145 5.594720 9.198699 -3.327627 9.739951 1.970000 -1.304300 2.522800 -79.872462 -0.296529 23.145917 5.719087 -17.866015 -1.913077 -1.338415 -1.687370 -22.945421 -7.125000 0.000000 0.000000 77.799320 -3.213508 20.949681 -13.548552 27.690936 -5.231683 1.916501 1.046091 -4.259323 7.125000 0.000000 0.000000 
54.482830 17.145089 20.380982 -174.965892 -42.323181 179.073195 -16.793427 3.555686 -10.070503 1.069696 10.149997 27.137379 1.356533 -3.081621 -8.107647 0.049200 1.430900 3.935300 29.103063 7.074020 -11.153986 -1.422328 -12.237208 32.273290 0.838129 -7.194475 -13.686127 -0.033600 -1.183600 3.254200 1.333206 -1.398541 -1.072470 -2.934215 -0.519550 5.599934 9.225067 -3.412830 9.748308 1.985600 -1.346900 2.533800 -79.894076 -0.230015 23.019063 5.655502 -17.795544 -1.894414 -1.340785 -1.670515 -22.790936 -7.125000 0.000000 0.000000 77.863223 -3.248535 20.964131 -13.559873 27.698271 -5.235199 1.931838 1.043399 -4.177076 7.125000 0.000000 0.000000 
54.473048 17.144444 20.383132 -175.000461 -42.431849 179.010037 -16.841186 3.593869 -9.931602 1.046324 10.106690 27.015245 1.376827 -3.197686 -8.024928 0.053800 1.496300 4.115600 29.064512 7.017918 -11.072904 -1.431760 -12.237510 32.301041 0.867495 -7.311987 -13.764543 -0.029300 -1.104300 3.036000 1.340426 -1.409943 -1.074058 -2.857707 -0.528630 5.620639 9.254916 -3.494345 9.759045 2.006300 -1.387400 2.548500 -79.960013 -0.149872 22.705856 5.639595 -17.782544 -1.893781 -1.342433 -1.648370 -22.490757 -7.125000 0.000000 0.000000 77.925965 -3.272132 20.963093 -13.548253 27.680871 -5.227334 1.944631 1.038037 -4.060559 7.125000 0.000000 0.000000 
54.462621 17.144014 20.384960 -175.037736 -42.535623 178.947764 -16.903723 3.609918 -9.778830 1.023097 10.064422 26.894414 1.389954 -3.275522 -7.967630 0.060900 1.592600 4.380900 29.018409 6.947397 -10.991726 -1.441799 -12.237883 32.330550 0.889800 -7.402730 -13.832518 -0.025800 -1.036200 2.848500 1.344660 -1.412139 -1.072106 -2.798303 -0.531422 5.659924 9.288423 -3.575732 9.765635 2.031100 -1.428100 2.559600 -80.011699 -0.071565 22.429898 5.653637 -17.809454 -1.902656 -1.342676 -1.627932 -22.251371 -7.125000 0.000000 0.000000 77.993822 -3.286210 20.953013 -13.519446 27.647078 -5.211397 1.955305 1.031875 -3.934676 7.125000 0.000000 0.000000 
54.451979 17.143906 20.387110 -175.085695 -42.622174 178.906125 -16.985853 3.603492 -9.625389 0.999435 10.022515 26.772049 1.394340 -3.306619 -7.932727 0.070200 1.709800 4.704300 28.959561 6.887824 -10.922075 -1.452161 -12.240123 32.363220 0.904727 -7.467168 -13.894188 -0.023400 -0.987900 2.715500 1.345627 -1.401808 -1.068646 -2.750956 -0.527041 5.716487 9.317431 -3.660885 9.775609 2.057400 -1.470400 2.576100 -80.011625 -0.020940 22.353101 5.671278 -17.844662 -1.910168 -1.345479 -1.613655 -22.230725 -7.125000 0.000000 0.000000 78.064678 -3.290978 20.932530 -13.472273 27.595161 -5.186766 1.963881 1.023297 -3.802410 7.125000 0.000000 0.000000 
54.441660 17.144444 20.390227 -175.146623 -42.701429 178.910124 -17.085712 3.567734 -9.504893 0.974408 9.982288 26.648472 1.391226 -3.300750 -7.901686 0.081500 1.841500 5.067700 28.881831 6.851335 -10.890695 -1.461828 -12.245368 32.397401 0.913341 -7.509531 -13.952464 -0.022100 -0.960200 2.639200 1.345308 -1.385879 -1.067805 -2.705407 -0.519969 5.775673 9.337846 -3.745470 9.788292 2.079400 -1.512000 2.596900 -79.969969 0.007505 22.472680 5.690658 -17.886982 -1.915777 -1.351156 -1.603496 -22.427390 -7.125000 0.000000 0.000000 78.125184 -3.289916 20.922505 -13.410189 27.527714 -5.154748 1.971947 1.014264 -3.680664 7.125000 0.000000 0.000000 
54.432308 17.145089 20.393237 -175.209486 -42.786972 178.923117 -17.188829 3.514637 -9.389288 0.949857 9.943533 26.528050 1.386475 -3.284663 -7.881886 0.094100 1.978300 5.445700 28.804768 6.825485 -10.868102 -1.471896 -12.252533 32.435509 0.922405 -7.556486 -14.022477 -0.021000 -0.936400 2.573800 1.344157 -1.365663 -1.068281 -2.657223 -0.511359 5.830362 9.359667 -3.825205 9.803880 2.103600 -1.550800 2.622300 -79.902700 0.017865 22.678046 5.710960 -17.931736 -1.920761 -1.359076 -1.596892 -22.718726 -7.125000 0.000000 0.000000 78.189040 -3.287684 20.898889 -13.330084 27.439544 -5.113987 1.980158 1.003575 -3.561884 7.125000 0.000000 0.000000 
54.424246 17.145841 20.396462 -175.273222 -42.883821 178.950279 -17.288567 3.453903 -9.296095 0.925966 9.907283 26.413207 1.382955 -3.274791 -7.856562 0.106900 2.108300 5.805100 28.728765 6.815149 -10.860011 -1.481768 -12.261228 32.474571 0.933186 -7.612924 -14.107008 -0.020200 -0.917400 2.521700 1.343908 -1.347860 -1.072524 -2.599330 -0.505107 5.864877 9.370695 -3.909329 9.818099 2.119700 -1.592200 2.644500 -79.847322 0.036058 22.845578 5.744069 -17.994143 -1.932452 -1.359397 -1.605705 -22.987476 -7.125000 0.000000 0.000000 78.246582 -3.292591 20.876532 -13.233210 27.331213 -5.064652 1.988673 0.991330 -3.441138 7.125000 0.000000 0.000000 
